<svg aria-roledescription="er" role="graphics-document document" viewBox="0 0 220.2389678955078 540" style="max-width: 220.239px; background-color: white;" xmlns:xlink="http://www.w3.org/1999/xlink" xmlns="http://www.w3.org/2000/svg" width="100%" id="mermaid-0"><style>#mermaid-0{font-family:"trebuchet ms",verdana,arial,sans-serif;font-size:16px;fill:#000000;}#mermaid-0 .error-icon{fill:#552222;}#mermaid-0 .error-text{fill:#552222;stroke:#552222;}#mermaid-0 .edge-thickness-normal{stroke-width:2px;}#mermaid-0 .edge-thickness-thick{stroke-width:3.5px;}#mermaid-0 .edge-pattern-solid{stroke-dasharray:0;}#mermaid-0 .edge-pattern-dashed{stroke-dasharray:3;}#mermaid-0 .edge-pattern-dotted{stroke-dasharray:2;}#mermaid-0 .marker{fill:#000000;stroke:#000000;}#mermaid-0 .marker.cross{stroke:#000000;}#mermaid-0 svg{font-family:"trebuchet ms",verdana,arial,sans-serif;font-size:16px;}#mermaid-0 .entityBox{fill:#cde498;stroke:#13540c;}#mermaid-0 .attributeBoxOdd{fill:#ffffff;stroke:#13540c;}#mermaid-0 .attributeBoxEven{fill:#f2f2f2;stroke:#13540c;}#mermaid-0 .relationshipLabelBox{fill:hsl(78.1578947368, 58.4615384615%, 84.5098039216%);opacity:0.7;background-color:hsl(78.1578947368, 58.4615384615%, 84.5098039216%);}#mermaid-0 .relationshipLabelBox rect{opacity:0.5;}#mermaid-0 .relationshipLine{stroke:#000000;}#mermaid-0 .entityTitleText{text-anchor:middle;font-size:18px;fill:#000000;}#mermaid-0 :root{--mermaid-font-family:"trebuchet ms",verdana,arial,sans-serif;}</style><g/><defs><marker orient="auto" markerHeight="18" markerWidth="18" refY="9" refX="0" id="ONLY_ONE_START"><path d="M9,0 L9,18 M15,0 L15,18" fill="none" stroke="gray"/></marker></defs><defs><marker orient="auto" markerHeight="18" markerWidth="18" refY="9" refX="18" id="ONLY_ONE_END"><path d="M3,0 L3,18 M9,0 L9,18" fill="none" stroke="gray"/></marker></defs><defs><marker orient="auto" markerHeight="18" markerWidth="30" refY="9" refX="0" id="ZERO_OR_ONE_START"><circle r="6" cy="9" cx="21" fill="white" stroke="gray"/><path d="M9,0 L9,18" fill="none" stroke="gray"/></marker></defs><defs><marker orient="auto" markerHeight="18" markerWidth="30" refY="9" refX="30" id="ZERO_OR_ONE_END"><circle r="6" cy="9" cx="9" fill="white" stroke="gray"/><path d="M21,0 L21,18" fill="none" stroke="gray"/></marker></defs><defs><marker orient="auto" markerHeight="36" markerWidth="45" refY="18" refX="18" id="ONE_OR_MORE_START"><path d="M0,18 Q 18,0 36,18 Q 18,36 0,18 M42,9 L42,27" fill="none" stroke="gray"/></marker></defs><defs><marker orient="auto" markerHeight="36" markerWidth="45" refY="18" refX="27" id="ONE_OR_MORE_END"><path d="M3,9 L3,27 M9,18 Q27,0 45,18 Q27,36 9,18" fill="none" stroke="gray"/></marker></defs><defs><marker orient="auto" markerHeight="36" markerWidth="57" refY="18" refX="18" id="ZERO_OR_MORE_START"><circle r="6" cy="18" cx="48" fill="white" stroke="gray"/><path d="M0,18 Q18,0 36,18 Q18,36 0,18" fill="none" stroke="gray"/></marker></defs><defs><marker orient="auto" markerHeight="36" markerWidth="57" refY="18" refX="39" id="ZERO_OR_MORE_END"><circle r="6" cy="18" cx="9" fill="white" stroke="gray"/><path d="M21,18 Q39,0 57,18 Q39,36 21,18" fill="none" stroke="gray"/></marker></defs><path style="stroke: gray; fill: none;" marker-start="url(#ZERO_OR_MORE_START)" marker-end="url(#ZERO_OR_MORE_END)" d="M78.10509545854526,198L75.10749354008004,206.33333333333334C72.1098916216148,214.66666666666666,66.11468778468436,231.33333333333334,65.70507758464564,248C65.29546738460691,264.6666666666667,70.47145082145991,281.3333333333333,73.0594425398864,289.6666666666667L75.64743425831291,298" class="er relationshipLine"/><path style="stroke: gray; fill: none;" marker-start="url(#ZERO_OR_MORE_START)" marker-end="url(#ONLY_ONE_END)" d="M144.5915336371949,298L147.17952535562142,289.6666666666667C149.7675170740479,281.3333333333333,154.94350051090092,264.6666666666667,154.53389031086218,248C154.12428011082343,231.33333333333334,148.129076273893,214.66666666666666,145.13147435542777,206.33333333333334L142.13387243696255,198" class="er relationshipLine"/><g transform="translate(20,20 )" id="entity-User-818c511a-4a32-5484-ba70-875d765a9175"><rect height="178" width="180.2389678955078" y="0" x="0" class="er entityBox"/><text style="dominant-baseline: middle; text-anchor: middle; font-size: 12px;" transform="translate(90.1194839477539,12)" y="0" x="0" id="text-entity-User-818c511a-4a32-5484-ba70-875d765a9175" class="er entityLabel">User</text><rect height="22" width="54.095550537109375" y="24" x="0" class="er attributeBoxOdd"/><text style="dominant-baseline: middle; font-size: 10.2px;" transform="translate(5,35)" y="0" x="0" id="text-entity-User-818c511a-4a32-5484-ba70-875d765a9175-attr-1-type" class="er entityLabel">String</text><rect height="22" width="56.243194580078125" y="24" x="54.095550537109375" class="er attributeBoxOdd"/><text style="dominant-baseline: middle; font-size: 10.2px;" transform="translate(59.095550537109375,35)" y="0" x="0" id="text-entity-User-818c511a-4a32-5484-ba70-875d765a9175-attr-1-name" class="er entityLabel">id</text><rect height="22" width="22.68768310546875" y="24" x="110.3387451171875" class="er attributeBoxOdd"/><text style="dominant-baseline: middle; font-size: 10.2px;" transform="translate(115.3387451171875,35)" y="0" x="0" id="text-entity-User-818c511a-4a32-5484-ba70-875d765a9175-attr-1-key" class="er entityLabel">PK</text><rect height="22" width="47.21253967285156" y="24" x="133.02642822265625" class="er attributeBoxOdd"/><text style="dominant-baseline: middle; font-size: 10.2px;" transform="translate(138.02642822265625,35)" y="0" x="0" id="text-entity-User-818c511a-4a32-5484-ba70-875d765a9175-attr-1-comment" class="er entityLabel"/><rect height="22" width="54.095550537109375" y="46" x="0" class="er attributeBoxEven"/><text style="dominant-baseline: middle; font-size: 10.2px;" transform="translate(5,57)" y="0" x="0" id="text-entity-User-818c511a-4a32-5484-ba70-875d765a9175-attr-2-type" class="er entityLabel">String</text><rect height="22" width="56.243194580078125" y="46" x="54.095550537109375" class="er attributeBoxEven"/><text style="dominant-baseline: middle; font-size: 10.2px;" transform="translate(59.095550537109375,57)" y="0" x="0" id="text-entity-User-818c511a-4a32-5484-ba70-875d765a9175-attr-2-name" class="er entityLabel">uid</text><rect height="22" width="22.68768310546875" y="46" x="110.3387451171875" class="er attributeBoxEven"/><text style="dominant-baseline: middle; font-size: 10.2px;" transform="translate(115.3387451171875,57)" y="0" x="0" id="text-entity-User-818c511a-4a32-5484-ba70-875d765a9175-attr-2-key" class="er entityLabel"/><rect height="22" width="47.21253967285156" y="46" x="133.02642822265625" class="er attributeBoxEven"/><text style="dominant-baseline: middle; font-size: 10.2px;" transform="translate(138.02642822265625,57)" y="0" x="0" id="text-entity-User-818c511a-4a32-5484-ba70-875d765a9175-attr-2-comment" class="er entityLabel"/><rect height="22" width="54.095550537109375" y="68" x="0" class="er attributeBoxOdd"/><text style="dominant-baseline: middle; font-size: 10.2px;" transform="translate(5,79)" y="0" x="0" id="text-entity-User-818c511a-4a32-5484-ba70-875d765a9175-attr-3-type" class="er entityLabel">String</text><rect height="22" width="56.243194580078125" y="68" x="54.095550537109375" class="er attributeBoxOdd"/><text style="dominant-baseline: middle; font-size: 10.2px;" transform="translate(59.095550537109375,79)" y="0" x="0" id="text-entity-User-818c511a-4a32-5484-ba70-875d765a9175-attr-3-name" class="er entityLabel">picture</text><rect height="22" width="22.68768310546875" y="68" x="110.3387451171875" class="er attributeBoxOdd"/><text style="dominant-baseline: middle; font-size: 10.2px;" transform="translate(115.3387451171875,79)" y="0" x="0" id="text-entity-User-818c511a-4a32-5484-ba70-875d765a9175-attr-3-key" class="er entityLabel"/><rect height="22" width="47.21253967285156" y="68" x="133.02642822265625" class="er attributeBoxOdd"/><text style="dominant-baseline: middle; font-size: 10.2px;" transform="translate(138.02642822265625,79)" y="0" x="0" id="text-entity-User-818c511a-4a32-5484-ba70-875d765a9175-attr-3-comment" class="er entityLabel">nullable</text><rect height="22" width="54.095550537109375" y="90" x="0" class="er attributeBoxEven"/><text style="dominant-baseline: middle; font-size: 10.2px;" transform="translate(5,101)" y="0" x="0" id="text-entity-User-818c511a-4a32-5484-ba70-875d765a9175-attr-4-type" class="er entityLabel">String</text><rect height="22" width="56.243194580078125" y="90" x="54.095550537109375" class="er attributeBoxEven"/><text style="dominant-baseline: middle; font-size: 10.2px;" transform="translate(59.095550537109375,101)" y="0" x="0" id="text-entity-User-818c511a-4a32-5484-ba70-875d765a9175-attr-4-name" class="er entityLabel">email</text><rect height="22" width="22.68768310546875" y="90" x="110.3387451171875" class="er attributeBoxEven"/><text style="dominant-baseline: middle; font-size: 10.2px;" transform="translate(115.3387451171875,101)" y="0" x="0" id="text-entity-User-818c511a-4a32-5484-ba70-875d765a9175-attr-4-key" class="er entityLabel"/><rect height="22" width="47.21253967285156" y="90" x="133.02642822265625" class="er attributeBoxEven"/><text style="dominant-baseline: middle; font-size: 10.2px;" transform="translate(138.02642822265625,101)" y="0" x="0" id="text-entity-User-818c511a-4a32-5484-ba70-875d765a9175-attr-4-comment" class="er entityLabel">nullable</text><rect height="22" width="54.095550537109375" y="112" x="0" class="er attributeBoxOdd"/><text style="dominant-baseline: middle; font-size: 10.2px;" transform="translate(5,123)" y="0" x="0" id="text-entity-User-818c511a-4a32-5484-ba70-875d765a9175-attr-5-type" class="er entityLabel">String</text><rect height="22" width="56.243194580078125" y="112" x="54.095550537109375" class="er attributeBoxOdd"/><text style="dominant-baseline: middle; font-size: 10.2px;" transform="translate(59.095550537109375,123)" y="0" x="0" id="text-entity-User-818c511a-4a32-5484-ba70-875d765a9175-attr-5-name" class="er entityLabel">phone</text><rect height="22" width="22.68768310546875" y="112" x="110.3387451171875" class="er attributeBoxOdd"/><text style="dominant-baseline: middle; font-size: 10.2px;" transform="translate(115.3387451171875,123)" y="0" x="0" id="text-entity-User-818c511a-4a32-5484-ba70-875d765a9175-attr-5-key" class="er entityLabel"/><rect height="22" width="47.21253967285156" y="112" x="133.02642822265625" class="er attributeBoxOdd"/><text style="dominant-baseline: middle; font-size: 10.2px;" transform="translate(138.02642822265625,123)" y="0" x="0" id="text-entity-User-818c511a-4a32-5484-ba70-875d765a9175-attr-5-comment" class="er entityLabel">nullable</text><rect height="22" width="54.095550537109375" y="134" x="0" class="er attributeBoxEven"/><text style="dominant-baseline: middle; font-size: 10.2px;" transform="translate(5,145)" y="0" x="0" id="text-entity-User-818c511a-4a32-5484-ba70-875d765a9175-attr-6-type" class="er entityLabel">String</text><rect height="22" width="56.243194580078125" y="134" x="54.095550537109375" class="er attributeBoxEven"/><text style="dominant-baseline: middle; font-size: 10.2px;" transform="translate(59.095550537109375,145)" y="0" x="0" id="text-entity-User-818c511a-4a32-5484-ba70-875d765a9175-attr-6-name" class="er entityLabel">name</text><rect height="22" width="22.68768310546875" y="134" x="110.3387451171875" class="er attributeBoxEven"/><text style="dominant-baseline: middle; font-size: 10.2px;" transform="translate(115.3387451171875,145)" y="0" x="0" id="text-entity-User-818c511a-4a32-5484-ba70-875d765a9175-attr-6-key" class="er entityLabel"/><rect height="22" width="47.21253967285156" y="134" x="133.02642822265625" class="er attributeBoxEven"/><text style="dominant-baseline: middle; font-size: 10.2px;" transform="translate(138.02642822265625,145)" y="0" x="0" id="text-entity-User-818c511a-4a32-5484-ba70-875d765a9175-attr-6-comment" class="er entityLabel"/><rect height="22" width="54.095550537109375" y="156" x="0" class="er attributeBoxOdd"/><text style="dominant-baseline: middle; font-size: 10.2px;" transform="translate(5,167)" y="0" x="0" id="text-entity-User-818c511a-4a32-5484-ba70-875d765a9175-attr-7-type" class="er entityLabel">DateTime</text><rect height="22" width="56.243194580078125" y="156" x="54.095550537109375" class="er attributeBoxOdd"/><text style="dominant-baseline: middle; font-size: 10.2px;" transform="translate(59.095550537109375,167)" y="0" x="0" id="text-entity-User-818c511a-4a32-5484-ba70-875d765a9175-attr-7-name" class="er entityLabel">createdAt</text><rect height="22" width="22.68768310546875" y="156" x="110.3387451171875" class="er attributeBoxOdd"/><text style="dominant-baseline: middle; font-size: 10.2px;" transform="translate(115.3387451171875,167)" y="0" x="0" id="text-entity-User-818c511a-4a32-5484-ba70-875d765a9175-attr-7-key" class="er entityLabel"/><rect height="22" width="47.21253967285156" y="156" x="133.02642822265625" class="er attributeBoxOdd"/><text style="dominant-baseline: middle; font-size: 10.2px;" transform="translate(138.02642822265625,167)" y="0" x="0" id="text-entity-User-818c511a-4a32-5484-ba70-875d765a9175-attr-7-comment" class="er entityLabel"/></g><g transform="translate(20,298 )" id="entity-BusinessCard-8dd1d55a-df44-56bb-87eb-355a620f282a"><rect height="222" width="180.2389678955078" y="0" x="0" class="er entityBox"/><text style="dominant-baseline: middle; text-anchor: middle; font-size: 12px;" transform="translate(90.1194839477539,12)" y="0" x="0" id="text-entity-BusinessCard-8dd1d55a-df44-56bb-87eb-355a620f282a" class="er entityLabel">BusinessCard</text><rect height="22" width="54.095550537109375" y="24" x="0" class="er attributeBoxOdd"/><text style="dominant-baseline: middle; font-size: 10.2px;" transform="translate(5,35)" y="0" x="0" id="text-entity-BusinessCard-8dd1d55a-df44-56bb-87eb-355a620f282a-attr-1-type" class="er entityLabel">String</text><rect height="22" width="56.243194580078125" y="24" x="54.095550537109375" class="er attributeBoxOdd"/><text style="dominant-baseline: middle; font-size: 10.2px;" transform="translate(59.095550537109375,35)" y="0" x="0" id="text-entity-BusinessCard-8dd1d55a-df44-56bb-87eb-355a620f282a-attr-1-name" class="er entityLabel">id</text><rect height="22" width="22.68768310546875" y="24" x="110.3387451171875" class="er attributeBoxOdd"/><text style="dominant-baseline: middle; font-size: 10.2px;" transform="translate(115.3387451171875,35)" y="0" x="0" id="text-entity-BusinessCard-8dd1d55a-df44-56bb-87eb-355a620f282a-attr-1-key" class="er entityLabel">PK</text><rect height="22" width="47.21253967285156" y="24" x="133.02642822265625" class="er attributeBoxOdd"/><text style="dominant-baseline: middle; font-size: 10.2px;" transform="translate(138.02642822265625,35)" y="0" x="0" id="text-entity-BusinessCard-8dd1d55a-df44-56bb-87eb-355a620f282a-attr-1-comment" class="er entityLabel"/><rect height="22" width="54.095550537109375" y="46" x="0" class="er attributeBoxEven"/><text style="dominant-baseline: middle; font-size: 10.2px;" transform="translate(5,57)" y="0" x="0" id="text-entity-BusinessCard-8dd1d55a-df44-56bb-87eb-355a620f282a-attr-2-type" class="er entityLabel">String</text><rect height="22" width="56.243194580078125" y="46" x="54.095550537109375" class="er attributeBoxEven"/><text style="dominant-baseline: middle; font-size: 10.2px;" transform="translate(59.095550537109375,57)" y="0" x="0" id="text-entity-BusinessCard-8dd1d55a-df44-56bb-87eb-355a620f282a-attr-2-name" class="er entityLabel">youtube</text><rect height="22" width="22.68768310546875" y="46" x="110.3387451171875" class="er attributeBoxEven"/><text style="dominant-baseline: middle; font-size: 10.2px;" transform="translate(115.3387451171875,57)" y="0" x="0" id="text-entity-BusinessCard-8dd1d55a-df44-56bb-87eb-355a620f282a-attr-2-key" class="er entityLabel"/><rect height="22" width="47.21253967285156" y="46" x="133.02642822265625" class="er attributeBoxEven"/><text style="dominant-baseline: middle; font-size: 10.2px;" transform="translate(138.02642822265625,57)" y="0" x="0" id="text-entity-BusinessCard-8dd1d55a-df44-56bb-87eb-355a620f282a-attr-2-comment" class="er entityLabel">nullable</text><rect height="22" width="54.095550537109375" y="68" x="0" class="er attributeBoxOdd"/><text style="dominant-baseline: middle; font-size: 10.2px;" transform="translate(5,79)" y="0" x="0" id="text-entity-BusinessCard-8dd1d55a-df44-56bb-87eb-355a620f282a-attr-3-type" class="er entityLabel">String</text><rect height="22" width="56.243194580078125" y="68" x="54.095550537109375" class="er attributeBoxOdd"/><text style="dominant-baseline: middle; font-size: 10.2px;" transform="translate(59.095550537109375,79)" y="0" x="0" id="text-entity-BusinessCard-8dd1d55a-df44-56bb-87eb-355a620f282a-attr-3-name" class="er entityLabel">twitter</text><rect height="22" width="22.68768310546875" y="68" x="110.3387451171875" class="er attributeBoxOdd"/><text style="dominant-baseline: middle; font-size: 10.2px;" transform="translate(115.3387451171875,79)" y="0" x="0" id="text-entity-BusinessCard-8dd1d55a-df44-56bb-87eb-355a620f282a-attr-3-key" class="er entityLabel"/><rect height="22" width="47.21253967285156" y="68" x="133.02642822265625" class="er attributeBoxOdd"/><text style="dominant-baseline: middle; font-size: 10.2px;" transform="translate(138.02642822265625,79)" y="0" x="0" id="text-entity-BusinessCard-8dd1d55a-df44-56bb-87eb-355a620f282a-attr-3-comment" class="er entityLabel">nullable</text><rect height="22" width="54.095550537109375" y="90" x="0" class="er attributeBoxEven"/><text style="dominant-baseline: middle; font-size: 10.2px;" transform="translate(5,101)" y="0" x="0" id="text-entity-BusinessCard-8dd1d55a-df44-56bb-87eb-355a620f282a-attr-4-type" class="er entityLabel">String</text><rect height="22" width="56.243194580078125" y="90" x="54.095550537109375" class="er attributeBoxEven"/><text style="dominant-baseline: middle; font-size: 10.2px;" transform="translate(59.095550537109375,101)" y="0" x="0" id="text-entity-BusinessCard-8dd1d55a-df44-56bb-87eb-355a620f282a-attr-4-name" class="er entityLabel">facebook</text><rect height="22" width="22.68768310546875" y="90" x="110.3387451171875" class="er attributeBoxEven"/><text style="dominant-baseline: middle; font-size: 10.2px;" transform="translate(115.3387451171875,101)" y="0" x="0" id="text-entity-BusinessCard-8dd1d55a-df44-56bb-87eb-355a620f282a-attr-4-key" class="er entityLabel"/><rect height="22" width="47.21253967285156" y="90" x="133.02642822265625" class="er attributeBoxEven"/><text style="dominant-baseline: middle; font-size: 10.2px;" transform="translate(138.02642822265625,101)" y="0" x="0" id="text-entity-BusinessCard-8dd1d55a-df44-56bb-87eb-355a620f282a-attr-4-comment" class="er entityLabel">nullable</text><rect height="22" width="54.095550537109375" y="112" x="0" class="er attributeBoxOdd"/><text style="dominant-baseline: middle; font-size: 10.2px;" transform="translate(5,123)" y="0" x="0" id="text-entity-BusinessCard-8dd1d55a-df44-56bb-87eb-355a620f282a-attr-5-type" class="er entityLabel">String</text><rect height="22" width="56.243194580078125" y="112" x="54.095550537109375" class="er attributeBoxOdd"/><text style="dominant-baseline: middle; font-size: 10.2px;" transform="translate(59.095550537109375,123)" y="0" x="0" id="text-entity-BusinessCard-8dd1d55a-df44-56bb-87eb-355a620f282a-attr-5-name" class="er entityLabel">instagram</text><rect height="22" width="22.68768310546875" y="112" x="110.3387451171875" class="er attributeBoxOdd"/><text style="dominant-baseline: middle; font-size: 10.2px;" transform="translate(115.3387451171875,123)" y="0" x="0" id="text-entity-BusinessCard-8dd1d55a-df44-56bb-87eb-355a620f282a-attr-5-key" class="er entityLabel"/><rect height="22" width="47.21253967285156" y="112" x="133.02642822265625" class="er attributeBoxOdd"/><text style="dominant-baseline: middle; font-size: 10.2px;" transform="translate(138.02642822265625,123)" y="0" x="0" id="text-entity-BusinessCard-8dd1d55a-df44-56bb-87eb-355a620f282a-attr-5-comment" class="er entityLabel">nullable</text><rect height="22" width="54.095550537109375" y="134" x="0" class="er attributeBoxEven"/><text style="dominant-baseline: middle; font-size: 10.2px;" transform="translate(5,145)" y="0" x="0" id="text-entity-BusinessCard-8dd1d55a-df44-56bb-87eb-355a620f282a-attr-6-type" class="er entityLabel">String</text><rect height="22" width="56.243194580078125" y="134" x="54.095550537109375" class="er attributeBoxEven"/><text style="dominant-baseline: middle; font-size: 10.2px;" transform="translate(59.095550537109375,145)" y="0" x="0" id="text-entity-BusinessCard-8dd1d55a-df44-56bb-87eb-355a620f282a-attr-6-name" class="er entityLabel">github</text><rect height="22" width="22.68768310546875" y="134" x="110.3387451171875" class="er attributeBoxEven"/><text style="dominant-baseline: middle; font-size: 10.2px;" transform="translate(115.3387451171875,145)" y="0" x="0" id="text-entity-BusinessCard-8dd1d55a-df44-56bb-87eb-355a620f282a-attr-6-key" class="er entityLabel"/><rect height="22" width="47.21253967285156" y="134" x="133.02642822265625" class="er attributeBoxEven"/><text style="dominant-baseline: middle; font-size: 10.2px;" transform="translate(138.02642822265625,145)" y="0" x="0" id="text-entity-BusinessCard-8dd1d55a-df44-56bb-87eb-355a620f282a-attr-6-comment" class="er entityLabel">nullable</text><rect height="22" width="54.095550537109375" y="156" x="0" class="er attributeBoxOdd"/><text style="dominant-baseline: middle; font-size: 10.2px;" transform="translate(5,167)" y="0" x="0" id="text-entity-BusinessCard-8dd1d55a-df44-56bb-87eb-355a620f282a-attr-7-type" class="er entityLabel">String</text><rect height="22" width="56.243194580078125" y="156" x="54.095550537109375" class="er attributeBoxOdd"/><text style="dominant-baseline: middle; font-size: 10.2px;" transform="translate(59.095550537109375,167)" y="0" x="0" id="text-entity-BusinessCard-8dd1d55a-df44-56bb-87eb-355a620f282a-attr-7-name" class="er entityLabel">linkedin</text><rect height="22" width="22.68768310546875" y="156" x="110.3387451171875" class="er attributeBoxOdd"/><text style="dominant-baseline: middle; font-size: 10.2px;" transform="translate(115.3387451171875,167)" y="0" x="0" id="text-entity-BusinessCard-8dd1d55a-df44-56bb-87eb-355a620f282a-attr-7-key" class="er entityLabel"/><rect height="22" width="47.21253967285156" y="156" x="133.02642822265625" class="er attributeBoxOdd"/><text style="dominant-baseline: middle; font-size: 10.2px;" transform="translate(138.02642822265625,167)" y="0" x="0" id="text-entity-BusinessCard-8dd1d55a-df44-56bb-87eb-355a620f282a-attr-7-comment" class="er entityLabel">nullable</text><rect height="22" width="54.095550537109375" y="178" x="0" class="er attributeBoxEven"/><text style="dominant-baseline: middle; font-size: 10.2px;" transform="translate(5,189)" y="0" x="0" id="text-entity-BusinessCard-8dd1d55a-df44-56bb-87eb-355a620f282a-attr-8-type" class="er entityLabel">String</text><rect height="22" width="56.243194580078125" y="178" x="54.095550537109375" class="er attributeBoxEven"/><text style="dominant-baseline: middle; font-size: 10.2px;" transform="translate(59.095550537109375,189)" y="0" x="0" id="text-entity-BusinessCard-8dd1d55a-df44-56bb-87eb-355a620f282a-attr-8-name" class="er entityLabel">site</text><rect height="22" width="22.68768310546875" y="178" x="110.3387451171875" class="er attributeBoxEven"/><text style="dominant-baseline: middle; font-size: 10.2px;" transform="translate(115.3387451171875,189)" y="0" x="0" id="text-entity-BusinessCard-8dd1d55a-df44-56bb-87eb-355a620f282a-attr-8-key" class="er entityLabel"/><rect height="22" width="47.21253967285156" y="178" x="133.02642822265625" class="er attributeBoxEven"/><text style="dominant-baseline: middle; font-size: 10.2px;" transform="translate(138.02642822265625,189)" y="0" x="0" id="text-entity-BusinessCard-8dd1d55a-df44-56bb-87eb-355a620f282a-attr-8-comment" class="er entityLabel">nullable</text><rect height="22" width="54.095550537109375" y="200" x="0" class="er attributeBoxOdd"/><text style="dominant-baseline: middle; font-size: 10.2px;" transform="translate(5,211)" y="0" x="0" id="text-entity-BusinessCard-8dd1d55a-df44-56bb-87eb-355a620f282a-attr-9-type" class="er entityLabel">DateTime</text><rect height="22" width="56.243194580078125" y="200" x="54.095550537109375" class="er attributeBoxOdd"/><text style="dominant-baseline: middle; font-size: 10.2px;" transform="translate(59.095550537109375,211)" y="0" x="0" id="text-entity-BusinessCard-8dd1d55a-df44-56bb-87eb-355a620f282a-attr-9-name" class="er entityLabel">createdAt</text><rect height="22" width="22.68768310546875" y="200" x="110.3387451171875" class="er attributeBoxOdd"/><text style="dominant-baseline: middle; font-size: 10.2px;" transform="translate(115.3387451171875,211)" y="0" x="0" id="text-entity-BusinessCard-8dd1d55a-df44-56bb-87eb-355a620f282a-attr-9-key" class="er entityLabel"/><rect height="22" width="47.21253967285156" y="200" x="133.02642822265625" class="er attributeBoxOdd"/><text style="dominant-baseline: middle; font-size: 10.2px;" transform="translate(138.02642822265625,211)" y="0" x="0" id="text-entity-BusinessCard-8dd1d55a-df44-56bb-87eb-355a620f282a-attr-9-comment" class="er entityLabel"/></g><rect height="14" width="69.58984375" y="240.73574829101562" x="30.917343139648438" class="er relationshipLabelBox"/><text style="text-anchor: middle; dominant-baseline: middle; font-size: 12px;" y="247.73574829101562" x="65.71226501464844" id="rel1" class="er relationshipLabel">BusinessCard</text><rect height="14" width="23.958984375" y="240.73574829101562" x="142.54722595214844" class="er relationshipLabelBox"/><text style="text-anchor: middle; dominant-baseline: middle; font-size: 12px;" y="247.73574829101562" x="154.52671813964844" id="rel2" class="er relationshipLabel">user</text></svg>